<svg id="SvgjsSvg1030" width="288" height="288" xmlns="http://www.w3.org/2000/svg" version="1.1" xmlns:xlink="http://www.w3.org/1999/xlink" xmlns:svgjs="http://svgjs.com/svgjs"><defs id="SvgjsDefs1031"></defs><g id="SvgjsG1032"><svg xmlns="http://www.w3.org/2000/svg" width="288" height="288" fill-rule="evenodd" clip-rule="evenodd" image-rendering="optimizeQuality" shape-rendering="geometricPrecision" text-rendering="geometricPrecision" viewBox="0 0 201 201"><rect width="201" height="201" fill="#c1cfe0" rx="19" ry="19" class="color379ad0 svgShape"></rect><polygon fill="#fefefe" points="39 102 39 162 68 162 68 97 68 80 39 80" class="colorfefefe svgShape"></polygon><path fill="#fefefe" d="M54 39c-8 0-15 7-15 15 0 7 7 14 15 14 7 0 14-7 14-14 0-8-7-15-14-15zM161 105c-2-15-9-25-30-25-12 0-20 5-24 11l0 0 0-11-23 0 0 16 0 66 24 0 0-41c0-10 2-21 15-21 13 0 14 13 14 22l0 40 25 0 0-45 0 0c0-4 0-8-1-12z" class="colorfefefe svgShape"></path></svg></g></svg>