<svg id="SvgjsSvg1023" width="288" height="288" xmlns="http://www.w3.org/2000/svg" version="1.1" xmlns:xlink="http://www.w3.org/1999/xlink" xmlns:svgjs="http://svgjs.com/svgjs"><defs id="SvgjsDefs1024"></defs><g id="SvgjsG1025"><svg xmlns="http://www.w3.org/2000/svg" fill-rule="evenodd" stroke-linejoin="round" stroke-miterlimit="1.414" clip-rule="evenodd" viewBox="0 0 24 24" width="288" height="288"><rect width="24" height="24" fill="none"></rect><rect width="20" height="20" x="2" y="2" fill="#c1cfe0" class="color000 svgShape"></rect><path fill="#ffffff" d="M18.602,6.448l-3.698,0l-2.631,6.621l-2.99,-6.621l-3.951,0l0,0.329l1.392,1.701l-0.019,6.57l-1.376,1.878l0.003,0.311l3.886,0l0.01,-0.286l-1.628,-1.903l0.043,-5.317l3.433,7.506l0.414,0l3.049,-7.684l0,6.25l-1.25,1.182l0,0.252l5.313,0l0,-0.302l-1.218,-1.155l-0.017,-7.946l1.235,-1.055l0,-0.331Z" class="colorfff svgShape"></path></svg></g></svg>