<svg id="SvgjsSvg1013" width="288" height="288" xmlns="http://www.w3.org/2000/svg" version="1.1" xmlns:xlink="http://www.w3.org/1999/xlink" xmlns:svgjs="http://svgjs.com/svgjs"><defs id="SvgjsDefs1014"></defs><g id="SvgjsG1015"><svg xmlns="http://www.w3.org/2000/svg" data-name="Layer 2" viewBox="0 0 38 38" width="288" height="288"><path d="M36.711,33.367,28.416,19l-8.3-14.367a1.295,1.295,0,0,0-2.242,0L9.584,19,1.289,33.367A1.3,1.3,0,0,0,2.41,35.309H35.59A1.3,1.3,0,0,0,36.711,33.367Z" fill="#acacac" class="color000 svgShape"></path><circle cx="19" cy="29.048" r="1.523" fill="#ffffff" class="colorfff svgShape"></circle><path fill="#ffffff" d="M18.975,25.257h0a.969.969,0,0,1-.969-.929l-.345-7.207A1.34,1.34,0,0,1,19,15.725h0a1.341,1.341,0,0,1,1.339,1.4l-.4,7.2A.969.969,0,0,1,18.975,25.257Z" class="colorfff svgShape"></path></svg></g></svg>